<svg width="391" height="106" viewBox="0 0 391 106" fill="none" xmlns="http://www.w3.org/2000/svg">
<path d="M15.8 37.5C18.9 34.8 23.1 33.3 28.2 33.3C32.8 33.3 36.5 34.8 39.4 37.5C42.2 40.3 44 44.1 44.6 48.7H9.79997C10.7 44.1 12.7 40.3 15.8 37.5ZM52.9 55.8C53.7 55 54.3 53.8 54.3 52.5C54.3 47.1 53.3 42.1 51.2 37.9C49.1 33.7 46.1 30.4 42.2 28C38.2 25.7 33.6 24.4 28.3 24.4C22.9 24.4 17.9 25.7 13.7 28.2C9.39997 30.7 6.09997 34.2 3.69997 38.6C1.29997 43 0.0999756 48 0.0999756 53.6C0.0999756 59.2 1.39996 64.2 3.89996 68.6C6.39996 73 9.99998 76.4 14.6 79C19.1 81.5 24.2 82.7 30 82.7C33.1 82.7 36.5 82.2 40 80.9C43.6 79.8 46.5 78.2 48.9 76.3C49.9 75.5 50.6 74.4 50.6 73.2C50.6 71.9 50 70.7 48.7 69.6C47.9 69 46.8 68.6 45.6 68.6C44.2 68.6 43.1 69 42.2 69.8C40.7 71 38.9 71.9 36.6 72.6C34.3 73.4 32.2 73.8 30.1 73.8C24.8 73.8 20.3 72.3 16.6 69.3C12.9 66.4 10.7 62.4 9.99997 57.5H49.8C50.8 57.1 52 56.7 52.9 55.8Z" fill="#2694C2"/>
<path d="M89.1 1.7C88.1 2.7 87.6 4 87.6 5.5V62.6C87.6 66.4 88.2 69.7 89.6 72.6C90.9 75.5 92.7 77.8 95.1 79.5C97.5 81.2 100.2 81.9 103.3 81.9H103.5C105.6 81.9 107.3 81.5 108.6 80.4C109.9 79.5 110.6 78.2 110.6 76.6C110.6 75.1 110.1 73.9 109.2 72.8C108.4 71.9 107.2 71.3 105.9 71.3H103.3C101.7 71.3 100.5 70.5 99.5 68.8C98.5 67.1 98 65 98 62.4V5.3C98 3.8 97.5 2.6 96.5 1.5C95.5 0.6 94.2 0 92.7 0C91.3 0.3 90 0.799997 89.1 1.7Z" fill="#2694C2"/>
<path d="M156.2 36.3C159 34.6 162.3 33.8 165.8 33.8C169.4 33.8 172.5 34.6 175.3 36.3C178.1 38 180.3 40.4 181.9 43.3C183.5 46.3 184.3 49.7 184.3 53.4C184.3 57.1 183.5 60.6 181.9 63.5C180.3 66.4 178.1 68.7 175.3 70.4C172.5 72.1 169.3 72.9 165.8 72.9C162.2 72.9 159 72.1 156.2 70.4C153.4 68.7 151.2 66.4 149.6 63.5C147.9 60.6 147.2 57.1 147.2 53.4C147.2 49.7 147.9 46.3 149.6 43.3C151.2 40.3 153.4 37.9 156.2 36.3ZM180.6 28.1C176.2 25.6 171.3 24.3 165.8 24.3C160.2 24.3 155.2 25.6 150.8 28.1C146.4 30.6 143 34 140.6 38.3C138.1 42.7 136.9 47.7 136.9 53.4C136.9 59.1 138 64 140.6 68.4C143 72.8 146.5 76.2 150.8 78.8C155.2 81.3 160.1 82.5 165.8 82.5C171.3 82.5 176.3 81.4 180.7 78.8C185.1 76.3 188.4 72.8 190.9 68.4C193.3 64 194.6 59.1 194.6 53.4C194.6 47.7 193.3 42.7 190.8 38.3C188.3 34 185 30.6 180.6 28.1Z" fill="#2694C2"/>
<path d="M267.8 70.5C265 72.2 261.8 73 258.3 73C254.7 73 251.5 72.2 248.7 70.5C245.9 68.8 243.7 66.5 242.1 63.6C240.4 60.7 239.7 57.2 239.7 53.5C239.7 49.8 240.4 46.4 242.1 43.4C243.7 40.5 245.9 38.1 248.7 36.4C251.5 34.7 254.8 33.9 258.3 33.9C261.9 33.9 265 34.7 267.8 36.4C270.6 38.1 272.8 40.5 274.4 43.4C276 46.4 276.8 49.8 276.8 53.5C276.8 57.2 276 60.7 274.4 63.6C272.8 66.5 270.6 68.8 267.8 70.5ZM273 28.1C268.6 25.6 263.7 24.3 258.3 24.3C252.7 24.3 247.7 25.6 243.3 28.1C238.9 30.6 235.5 34 233.1 38.3C230.6 42.7 229.4 47.7 229.4 53.4C229.4 59.1 230.4 64 232.7 68.4C235 72.8 238.1 76.2 242.2 78.8C246.3 81.3 250.9 82.5 256.1 82.5C260.5 82.5 264.6 81.5 268.1 79.3C271.7 77.2 274.5 74.2 276.7 70.3V75.4C276.7 79.8 275.9 83.7 274.2 86.8C272.5 89.9 270.2 92.3 267.5 94C264.7 95.7 261.5 96.4 258.2 96.4C254.5 96.4 251.3 95.8 248.5 94.5C245.6 93.2 243.3 91.4 241.4 88.9C240.3 87.4 238.8 86.7 237.1 86.7C236.1 86.7 235.1 87 234.2 87.6C232.7 88.6 232 89.9 232 91.4C232 92.4 232.3 93.4 233.1 94.3C236 98.1 239.6 100.9 244 102.9C248.3 104.9 253 105.8 258 105.8C263.5 105.8 268.6 104.5 273 101.9C277.4 99.3 280.8 95.7 283.4 91.1C285.8 86.6 287.1 81.6 287.1 76V53.4C287.1 47.8 285.8 42.7 283.3 38.3C280.8 34 277.4 30.6 273 28.1Z" fill="#2694C2"/>
<path d="M327.3 26.2C326.3 27.2 325.8 28.5 325.8 30.1V76.6C325.8 78.2 326.2 79.4 327.3 80.5C328.3 81.5 329.6 82 331.2 82C332.8 82 334 81.6 335.1 80.5C336 79.5 336.6 78.2 336.6 76.6V30.1C336.6 28.5 336.1 27.3 335.1 26.2C334.1 25.3 332.8 24.7 331.2 24.7C329.6 24.8 328.4 25.3 327.3 26.2Z" fill="#2694C2"/>
<path d="M380.8 26.2C379.8 27.2 379.3 28.5 379.3 30.1V76.6C379.3 78.2 379.7 79.4 380.8 80.5C381.8 81.5 383.1 82 384.7 82C386.3 82 387.5 81.6 388.6 80.5C389.5 79.5 390.1 78.2 390.1 76.6V30.1C390.1 28.5 389.6 27.3 388.6 26.2C387.6 25.3 386.3 24.7 384.7 24.7C383.1 24.8 381.8 25.3 380.8 26.2Z" fill="#2694C2"/>
</svg>
